<svg xmlns="http://www.w3.org/2000/svg" width="3840" height="3597" viewBox="225.67 394.19 255.33 239.15">
<defs><radialGradient id="g-glow-1" gradientUnits="userSpaceOnUse" cx="0" cy="0" r="1.561" gradientTransform="translate(321.4 960.3) rotate(-19.88) scale(406.6 397.4)"><stop offset="0.000" stop-color="#2cd361" stop-opacity="1.0000"/><stop offset="0.059" stop-color="#2cd361" stop-opacity="0.9998"/><stop offset="0.118" stop-color="#2cd361" stop-opacity="0.9978"/><stop offset="0.176" stop-color="#2cd361" stop-opacity="0.9906"/><stop offset="0.235" stop-color="#2cd361" stop-opacity="0.9736"/><stop offset="0.294" stop-color="#2cd361" stop-opacity="0.9419"/><stop offset="0.353" stop-color="#2cd361" stop-opacity="0.8907"/><stop offset="0.412" stop-color="#2cd361" stop-opacity="0.8170"/><stop offset="0.471" stop-color="#2cd361" stop-opacity="0.7206"/><stop offset="0.529" stop-color="#2cd361" stop-opacity="0.6056"/><stop offset="0.588" stop-color="#2cd361" stop-opacity="0.4799"/><stop offset="0.647" stop-color="#2cd361" stop-opacity="0.3548"/><stop offset="0.706" stop-color="#2cd361" stop-opacity="0.2419"/><stop offset="0.765" stop-color="#2cd361" stop-opacity="0.1502"/><stop offset="0.824" stop-color="#2cd361" stop-opacity="0.0839"/><stop offset="0.882" stop-color="#2cd361" stop-opacity="0.0416"/><stop offset="0.941" stop-color="#2cd361" stop-opacity="0.0180"/><stop offset="1.000" stop-color="#2cd361" stop-opacity="0.0067"/></radialGradient><radialGradient id="g-glow-2" gradientUnits="userSpaceOnUse" cx="0" cy="0" r="1.676" gradientTransform="translate(323.1 812.8) rotate(-2.13) scale(226.5 133.7)"><stop offset="0.000" stop-color="#103a1d" stop-opacity="1.0000"/><stop offset="0.059" stop-color="#103a1d" stop-opacity="0.9993"/><stop offset="0.118" stop-color="#103a1d" stop-opacity="0.9937"/><stop offset="0.176" stop-color="#103a1d" stop-opacity="0.9779"/><stop offset="0.235" stop-color="#103a1d" stop-opacity="0.9466"/><stop offset="0.294" stop-color="#103a1d" stop-opacity="0.8957"/><stop offset="0.353" stop-color="#103a1d" stop-opacity="0.8233"/><stop offset="0.412" stop-color="#103a1d" stop-opacity="0.7303"/><stop offset="0.471" stop-color="#103a1d" stop-opacity="0.6208"/><stop offset="0.529" stop-color="#103a1d" stop-opacity="0.5025"/><stop offset="0.588" stop-color="#103a1d" stop-opacity="0.3845"/><stop offset="0.647" stop-color="#103a1d" stop-opacity="0.2762"/><stop offset="0.706" stop-color="#103a1d" stop-opacity="0.1849"/><stop offset="0.765" stop-color="#103a1d" stop-opacity="0.1146"/><stop offset="0.824" stop-color="#103a1d" stop-opacity="0.0653"/><stop offset="0.882" stop-color="#103a1d" stop-opacity="0.0339"/><stop offset="0.941" stop-color="#103a1d" stop-opacity="0.0159"/><stop offset="1.000" stop-color="#103a1d" stop-opacity="0.0067"/></radialGradient><linearGradient id="g-panel-fade" gradientUnits="userSpaceOnUse" x1="0" y1="395" x2="0" y2="520"><stop offset="0" stop-color="#fff" stop-opacity="0"/><stop offset="1" stop-color="#fff" stop-opacity="1"/></linearGradient><mask id="m-panel" maskUnits="userSpaceOnUse" x="30" y="390" width="640" height="380"><rect x="30" y="390" width="640" height="380" fill="url(#g-panel-fade)"/></mask><linearGradient id="g-bull-01" gradientUnits="userSpaceOnUse" x1="464.01" y1="482.23" x2="263.37" y2="508.65"><stop offset="0.000" stop-color="#08fda8"/><stop offset="0.050" stop-color="#08fda8"/><stop offset="0.150" stop-color="#06fe8e"/><stop offset="0.250" stop-color="#06ea79"/><stop offset="0.350" stop-color="#05c562"/><stop offset="0.450" stop-color="#05a651"/><stop offset="0.550" stop-color="#048941"/><stop offset="0.650" stop-color="#037235"/><stop offset="0.750" stop-color="#045b2b"/><stop offset="0.850" stop-color="#034921"/><stop offset="0.950" stop-color="#032f15"/><stop offset="1.000" stop-color="#032f15"/></linearGradient><linearGradient id="g-bull-02" gradientUnits="userSpaceOnUse" x1="459.33" y1="458.71" x2="532" y2="458.71"><stop offset="0.000" stop-color="#04954a"/><stop offset="0.050" stop-color="#04954a"/><stop offset="0.150" stop-color="#05ad57"/><stop offset="0.250" stop-color="#06c465"/><stop offset="0.350" stop-color="#05df73"/><stop offset="0.450" stop-color="#07fa81"/><stop offset="0.550" stop-color="#07fe91"/><stop offset="0.650" stop-color="#07fea3"/><stop offset="0.750" stop-color="#08feba"/><stop offset="0.850" stop-color="#09fed4"/><stop offset="0.950" stop-color="#09fded"/><stop offset="1.000" stop-color="#09fded"/></linearGradient><linearGradient id="g-bull-03" gradientUnits="userSpaceOnUse" x1="572.13" y1="424.2" x2="513.33" y2="431.94"><stop offset="0.000" stop-color="#f8fefe"/><stop offset="0.050" stop-color="#f8fefe"/><stop offset="0.150" stop-color="#c8fbf8"/><stop offset="0.250" stop-color="#9ef8f7"/><stop offset="0.350" stop-color="#8afdfb"/><stop offset="0.450" stop-color="#6ffef7"/><stop offset="0.550" stop-color="#53fef6"/><stop offset="0.650" stop-color="#3cfce5"/><stop offset="0.750" stop-color="#23e8b2"/><stop offset="0.850" stop-color="#109870"/><stop offset="0.950" stop-color="#07553f"/><stop offset="1.000" stop-color="#07553f"/></linearGradient><linearGradient id="g-bull-04" gradientUnits="userSpaceOnUse" x1="154.14" y1="496.6" x2="109.01" y2="502.54"><stop offset="0.000" stop-color="#07c367"/><stop offset="0.050" stop-color="#07c367"/><stop offset="0.150" stop-color="#04b95c"/><stop offset="0.250" stop-color="#04ab55"/><stop offset="0.350" stop-color="#059d4f"/><stop offset="0.450" stop-color="#058f48"/><stop offset="0.550" stop-color="#058041"/><stop offset="0.650" stop-color="#04723c"/><stop offset="0.750" stop-color="#036533"/><stop offset="0.850" stop-color="#04572e"/><stop offset="0.950" stop-color="#034a27"/><stop offset="1.000" stop-color="#034a27"/></linearGradient><linearGradient id="g-bull-05" gradientUnits="userSpaceOnUse" x1="366.67" y1="522.93" x2="425.67" y2="522.93"><stop offset="0.000" stop-color="#04170b"/><stop offset="0.050" stop-color="#04170b"/><stop offset="0.150" stop-color="#032c15"/><stop offset="0.250" stop-color="#034120"/><stop offset="0.350" stop-color="#04552b"/><stop offset="0.450" stop-color="#056a34"/><stop offset="0.550" stop-color="#057f3e"/><stop offset="0.650" stop-color="#05924a"/><stop offset="0.750" stop-color="#04a654"/><stop offset="0.850" stop-color="#04ba5f"/><stop offset="0.950" stop-color="#03d268"/><stop offset="1.000" stop-color="#03d268"/></linearGradient><linearGradient id="g-bull-06" gradientUnits="userSpaceOnUse" x1="145.42" y1="526.84" x2="131.15" y2="528.72"><stop offset="0.000" stop-color="#30a06d"/><stop offset="0.050" stop-color="#30a06d"/><stop offset="0.150" stop-color="#13a061"/><stop offset="0.250" stop-color="#08a158"/><stop offset="0.350" stop-color="#05a054"/><stop offset="0.450" stop-color="#079a51"/><stop offset="0.550" stop-color="#069750"/><stop offset="0.650" stop-color="#06934f"/><stop offset="0.750" stop-color="#06904e"/><stop offset="0.850" stop-color="#048d4b"/><stop offset="0.950" stop-color="#05894b"/><stop offset="1.000" stop-color="#05894b"/></linearGradient><linearGradient id="g-bull-07" gradientUnits="userSpaceOnUse" x1="208" y1="618.27" x2="297.67" y2="618.27"><stop offset="0.000" stop-color="#021509"/><stop offset="0.050" stop-color="#021509"/><stop offset="0.150" stop-color="#032e14"/><stop offset="0.250" stop-color="#034420"/><stop offset="0.350" stop-color="#04582a"/><stop offset="0.450" stop-color="#036b35"/><stop offset="0.550" stop-color="#037d3e"/><stop offset="0.650" stop-color="#028f46"/><stop offset="0.750" stop-color="#04a150"/><stop offset="0.850" stop-color="#05b158"/><stop offset="0.950" stop-color="#06c362"/><stop offset="1.000" stop-color="#06c362"/></linearGradient><linearGradient id="g-bull-08" gradientUnits="userSpaceOnUse" x1="452.22" y1="532.83" x2="474.36" y2="545.6"><stop offset="0.000" stop-color="#056231"/><stop offset="0.050" stop-color="#056231"/><stop offset="0.150" stop-color="#046e38"/><stop offset="0.250" stop-color="#04773d"/><stop offset="0.350" stop-color="#058142"/><stop offset="0.450" stop-color="#058a46"/><stop offset="0.550" stop-color="#05944a"/><stop offset="0.650" stop-color="#059d4f"/><stop offset="0.750" stop-color="#04a855"/><stop offset="0.850" stop-color="#04b25b"/><stop offset="0.950" stop-color="#04bd61"/><stop offset="1.000" stop-color="#04bd61"/></linearGradient><linearGradient id="g-bull-09" gradientUnits="userSpaceOnUse" x1="96" y1="534.74" x2="103" y2="534.74"><stop offset="0.000" stop-color="#010805"/><stop offset="0.050" stop-color="#010805"/><stop offset="0.150" stop-color="#000804"/><stop offset="0.250" stop-color="#010905"/><stop offset="0.350" stop-color="#020b07"/><stop offset="0.450" stop-color="#040d09"/><stop offset="0.550" stop-color="#040f09"/><stop offset="0.650" stop-color="#041007"/><stop offset="0.750" stop-color="#041308"/><stop offset="0.850" stop-color="#051308"/><stop offset="0.950" stop-color="#051609"/><stop offset="1.000" stop-color="#051609"/></linearGradient><linearGradient id="g-bull-10" gradientUnits="userSpaceOnUse" x1="123.63" y1="555.65" x2="132.81" y2="558.11"><stop offset="0.000" stop-color="#086037"/><stop offset="0.050" stop-color="#086037"/><stop offset="0.150" stop-color="#086339"/><stop offset="0.250" stop-color="#06683a"/><stop offset="0.350" stop-color="#076e3c"/><stop offset="0.450" stop-color="#07733f"/><stop offset="0.550" stop-color="#087440"/><stop offset="0.650" stop-color="#0b7642"/><stop offset="0.750" stop-color="#107545"/><stop offset="0.850" stop-color="#157a49"/><stop offset="0.950" stop-color="#267f52"/><stop offset="1.000" stop-color="#267f52"/></linearGradient><linearGradient id="g-bull-11" gradientUnits="userSpaceOnUse" x1="428.95" y1="563.99" x2="421.41" y2="569.77"><stop offset="0.000" stop-color="#006601"/><stop offset="0.050" stop-color="#006601"/><stop offset="0.150" stop-color="#005a05"/><stop offset="0.250" stop-color="#005807"/><stop offset="0.350" stop-color="#005a0d"/><stop offset="0.450" stop-color="#00570d"/><stop offset="0.550" stop-color="#00540e"/><stop offset="0.650" stop-color="#005511"/><stop offset="0.750" stop-color="#005712"/><stop offset="0.850" stop-color="#005814"/><stop offset="0.950" stop-color="#005819"/><stop offset="1.000" stop-color="#005819"/></linearGradient><linearGradient id="g-bull-12" gradientUnits="userSpaceOnUse" x1="417.04" y1="570.32" x2="420.13" y2="572.69"><stop offset="0.000" stop-color="#125020"/><stop offset="0.050" stop-color="#125020"/><stop offset="0.150" stop-color="#144f20"/><stop offset="0.250" stop-color="#155022"/><stop offset="0.350" stop-color="#155023"/><stop offset="0.450" stop-color="#135024"/><stop offset="0.550" stop-color="#0e5022"/><stop offset="0.650" stop-color="#0a511f"/><stop offset="0.750" stop-color="#04501c"/><stop offset="0.850" stop-color="#00541c"/><stop offset="0.950" stop-color="#005820"/><stop offset="1.000" stop-color="#005820"/></linearGradient><linearGradient id="g-bull-13" gradientUnits="userSpaceOnUse" x1="472.18" y1="566.56" x2="514.5" y2="584.08"><stop offset="0.000" stop-color="#05e373"/><stop offset="0.050" stop-color="#05e373"/><stop offset="0.150" stop-color="#07f981"/><stop offset="0.250" stop-color="#06fe8f"/><stop offset="0.350" stop-color="#06fe9a"/><stop offset="0.450" stop-color="#08ffa8"/><stop offset="0.550" stop-color="#08feb8"/><stop offset="0.650" stop-color="#08fec1"/><stop offset="0.750" stop-color="#08fdcd"/><stop offset="0.850" stop-color="#0bfcdb"/><stop offset="0.950" stop-color="#0efce8"/><stop offset="1.000" stop-color="#0efce8"/></linearGradient><linearGradient id="g-bull-14" gradientUnits="userSpaceOnUse" x1="201.58" y1="579.38" x2="153.98" y2="585.65"><stop offset="0.000" stop-color="#07ae5b"/><stop offset="0.050" stop-color="#07ae5b"/><stop offset="0.150" stop-color="#06a856"/><stop offset="0.250" stop-color="#039e4e"/><stop offset="0.350" stop-color="#039447"/><stop offset="0.450" stop-color="#058a43"/><stop offset="0.550" stop-color="#04803e"/><stop offset="0.650" stop-color="#04773a"/><stop offset="0.750" stop-color="#046b35"/><stop offset="0.850" stop-color="#02612e"/><stop offset="0.950" stop-color="#025427"/><stop offset="1.000" stop-color="#025427"/></linearGradient><linearGradient id="g-bull-15" gradientUnits="userSpaceOnUse" x1="413.23" y1="599.8" x2="395.07" y2="602.2"><stop offset="0.000" stop-color="#109857"/><stop offset="0.050" stop-color="#109857"/><stop offset="0.150" stop-color="#07934e"/><stop offset="0.250" stop-color="#058d49"/><stop offset="0.350" stop-color="#058644"/><stop offset="0.450" stop-color="#048040"/><stop offset="0.550" stop-color="#057a3d"/><stop offset="0.650" stop-color="#057439"/><stop offset="0.750" stop-color="#056e36"/><stop offset="0.850" stop-color="#046832"/><stop offset="0.950" stop-color="#046230"/><stop offset="1.000" stop-color="#046230"/></linearGradient><linearGradient id="g-bull-16" gradientUnits="userSpaceOnUse" x1="299.51" y1="597.98" x2="303.2" y2="598.47"><stop offset="0.000" stop-color="#03ce66"/><stop offset="0.050" stop-color="#03ce66"/><stop offset="0.150" stop-color="#03ce66"/><stop offset="0.250" stop-color="#04ce68"/><stop offset="0.350" stop-color="#06ce6b"/><stop offset="0.450" stop-color="#0bcd6e"/><stop offset="0.550" stop-color="#0ecd70"/><stop offset="0.650" stop-color="#18cd74"/><stop offset="0.750" stop-color="#28cc79"/><stop offset="0.850" stop-color="#3cca7c"/><stop offset="0.950" stop-color="#3abd78"/><stop offset="1.000" stop-color="#3abd78"/></linearGradient><linearGradient id="g-bull-17" gradientUnits="userSpaceOnUse" x1="217.47" y1="633.91" x2="207" y2="713.47"><stop offset="0.000" stop-color="#05b75e"/><stop offset="0.050" stop-color="#05b75e"/><stop offset="0.150" stop-color="#04ae57"/><stop offset="0.250" stop-color="#04a351"/><stop offset="0.350" stop-color="#04994c"/><stop offset="0.450" stop-color="#048e46"/><stop offset="0.550" stop-color="#04833f"/><stop offset="0.650" stop-color="#04783c"/><stop offset="0.750" stop-color="#016d33"/><stop offset="0.850" stop-color="#03602f"/><stop offset="0.950" stop-color="#035528"/><stop offset="1.000" stop-color="#035528"/></linearGradient><linearGradient id="g-bull-18" gradientUnits="userSpaceOnUse" x1="228.9" y1="695.86" x2="246.5" y2="761.53"><stop offset="0.000" stop-color="#37b95e"/><stop offset="0.050" stop-color="#37b95e"/><stop offset="0.150" stop-color="#35c260"/><stop offset="0.250" stop-color="#36c965"/><stop offset="0.350" stop-color="#38d069"/><stop offset="0.450" stop-color="#38d66c"/><stop offset="0.550" stop-color="#3ade70"/><stop offset="0.650" stop-color="#3de574"/><stop offset="0.750" stop-color="#40e976"/><stop offset="0.850" stop-color="#46e979"/><stop offset="0.950" stop-color="#48e77c"/><stop offset="1.000" stop-color="#48e77c"/></linearGradient><linearGradient id="g-bull-19" gradientUnits="userSpaceOnUse" x1="215.93" y1="724.61" x2="206.44" y2="760.04"><stop offset="0.000" stop-color="#064020"/><stop offset="0.050" stop-color="#064020"/><stop offset="0.150" stop-color="#053a1f"/><stop offset="0.250" stop-color="#033119"/><stop offset="0.350" stop-color="#012915"/><stop offset="0.450" stop-color="#032311"/><stop offset="0.550" stop-color="#041e0e"/><stop offset="0.650" stop-color="#03190b"/><stop offset="0.750" stop-color="#03130a"/><stop offset="0.850" stop-color="#030a07"/><stop offset="0.950" stop-color="#020704"/><stop offset="1.000" stop-color="#020704"/></linearGradient><linearGradient id="g-bull-21" gradientUnits="userSpaceOnUse" x1="149.31" y1="505.18" x2="138.56" y2="509.63"><stop offset="0.000" stop-color="#072009"/><stop offset="0.050" stop-color="#072009"/><stop offset="0.150" stop-color="#111f11"/><stop offset="0.250" stop-color="#0c1e0d"/><stop offset="0.350" stop-color="#081e09"/><stop offset="0.450" stop-color="#062209"/><stop offset="0.550" stop-color="#052408"/><stop offset="0.650" stop-color="#032305"/><stop offset="0.750" stop-color="#022605"/><stop offset="0.850" stop-color="#012700"/><stop offset="0.950" stop-color="#002b00"/><stop offset="1.000" stop-color="#002b00"/></linearGradient><linearGradient id="g-refl" gradientUnits="userSpaceOnUse" x1="0" y1="763.3" x2="0" y2="1131.3"><stop offset="0.000" stop-color="#fff" stop-opacity="0.064"/><stop offset="0.147" stop-color="#fff" stop-opacity="0.091"/><stop offset="0.245" stop-color="#fff" stop-opacity="0.100"/><stop offset="0.571" stop-color="#fff" stop-opacity="0.098"/><stop offset="0.668" stop-color="#fff" stop-opacity="0.078"/><stop offset="0.734" stop-color="#fff" stop-opacity="0.056"/><stop offset="0.799" stop-color="#fff" stop-opacity="0.037"/><stop offset="0.864" stop-color="#fff" stop-opacity="0.021"/><stop offset="0.929" stop-color="#fff" stop-opacity="0.009"/><stop offset="1.000" stop-color="#fff" stop-opacity="0.000"/></linearGradient><mask id="m-refl" maskUnits="userSpaceOnUse" x="20" y="763" width="660" height="380"><rect x="20" y="763.3" width="660" height="368" fill="url(#g-refl)"/></mask><filter id="f-refl" x="-5%" y="-5%" width="110%" height="110%"><feGaussianBlur stdDeviation="2.0"/></filter></defs>
<g id="bull-torso"><path id="facet-01" d="M292.33,629.33 L293.91,627.87 L297.06,624.93 L301.78,620.53 L308.08,614.67 L313.89,609.62 L319.21,605.39 L324.03,601.99 L328.36,599.4 L331.98,597.17 L334.88,595.28 L337.08,593.74 L338.55,592.55 L343.53,590.61 L352,587.91 L363.97,584.47 L379.43,580.26 L392.1,576.73 L401.99,573.86 L409.08,571.66 L413.38,570.13 L416.61,568.98 L418.76,568.22 L419.83,567.83 L420.2,567.58 L420.94,567.07 L422.05,566.3 L423.52,565.29 L424.98,564.65 L426.44,564.4 L427.88,564.53 L429.3,565.04 L429.74,565.83 L429.19,566.9 L427.65,568.26 L425.12,569.89 L423.23,571.11 L421.97,571.93 L421.33,572.33 L418,576.67 L416.67,582.67 L416.66,582.85 L416.65,583.21 L416.63,583.76 L416.6,584.49 L416.25,585.63 L415.57,587.17 L414.57,589.11 L413.24,591.46 L412.29,593.51 L411.72,595.27 L411.54,596.73 L411.74,597.89 L412.16,598.89 L412.79,599.73 L413.65,600.41 L414.73,600.94 L418.01,599.24 L423.51,595.33 L431.21,589.2 L441.13,580.85 L448.56,574.59 L453.52,570.42 L456,568.33 L459.83,557.17 L458.97,556.38 L457.25,554.8 L454.67,552.44 L451.22,549.29 L449.2,545.46 L448.6,540.94 L449.41,535.73 L451.65,529.84 L453.32,525.42 L454.44,522.47 L455,521 L455.31,520.17 L455.92,518.5 L456.85,516 L458.08,512.66 L458.99,509.72 L459.58,507.16 L459.86,504.99 L459.82,503.2 L460.01,501.89 L460.45,501.06 L461.12,500.7 L462.03,500.81 L463.13,500.29 L464.41,499.15 L465.89,497.38 L467.55,494.98 L469.23,492.71 L470.93,490.59 L472.65,488.61 L474.39,486.77 L475.7,485.38 L476.57,484.46 L477,484 L476.37,482.84 L475.1,480.52 L473.2,477.05 L470.67,472.41 L468.66,468.34 L467.17,464.83 L466.2,461.88 L465.75,459.5 L465.41,456.59 L465.18,453.16 L465.06,449.19 L465.05,444.7 L464.87,440.86 L464.52,437.67 L464,435.12 L463.31,433.23 L462.37,431.16 L461.15,428.91 L459.68,426.49 L457.94,423.89 L456.64,421.95 L455.77,420.65 L455.33,420 L434.67,406 L433.45,405.69 L431.03,405.07 L427.4,404.15 L422.55,402.91 L417.4,401.79 L411.94,400.78 L406.18,399.88 L400.12,399.1 L394.84,398.55 L390.34,398.25 L386.62,398.19 L383.69,398.36 L380.84,398.63 L378.06,399 L375.37,399.45 L372.76,400.01 L369.91,400.81 L366.83,401.85 L363.52,403.15 L359.98,404.69 L356.36,406.65 L352.65,409.03 L348.86,411.82 L344.99,415.03 L340.93,418.87 L336.68,423.33 L332.25,428.42 L327.63,434.13 L323.18,440.03 L318.88,446.11 L314.75,452.37 L310.78,458.82 L306.23,465.5 L301.1,472.41 L295.38,479.55 L289.09,486.92 L284.27,492.73 L280.93,496.98 L279.08,499.66 L278.71,500.79 L278.38,502.54 L278.08,504.92 L277.83,507.91 L277.62,511.54 L277.36,514.51 L277.05,516.84 L276.69,518.53 L276.28,519.57 L275.87,520.4 L275.45,521.01 L275.03,521.4 L274.6,521.58 L274.18,521.63 L273.75,521.57 L273.34,521.38 L272.92,521.07 L272.4,520.31 L271.77,519.11 L271.03,517.46 L270.19,515.36 L269.03,513.96 L267.56,513.25 L265.79,513.24 L263.7,513.92 L260.21,516.04 L255.3,519.6 L248.99,524.59 L241.26,531.02 L235.46,535.84 L231.6,539.06 L229.67,540.67 L230.49,540.43 L232.14,539.95 L234.61,539.23 L237.9,538.28 L241.2,537.54 L244.51,537.03 L247.82,536.74 L251.13,536.67 L254.65,536.9 L258.36,537.43 L262.28,538.26 L266.39,539.4 L270.07,540.6 L273.3,541.87 L276.1,543.2 L278.45,544.59 L280.76,546.11 L283.03,547.76 L285.26,549.54 L287.44,551.44 L289.6,553.63 L291.75,556.1 L293.89,558.86 L296.01,561.9 L297.89,565.01 L299.52,568.16 L300.91,571.38 L302.06,574.65 L302.99,577.68 L303.71,580.45 L304.21,582.98 L304.5,585.26 L304.66,587.24 L304.69,588.92 L304.58,590.3 L304.35,591.38 L304.18,592.19 L304.06,592.73 L304,593 L302.33,607 L302.18,607.57 L301.87,608.72 L301.4,610.44 L300.78,612.74 L299.84,615.28 L298.59,618.07 L297.03,621.11 L295.15,624.4 L293.74,626.87 L292.8,628.51Z M385.67,479.67 L386.25,479.73 L387.41,479.86 L389.15,480.06 L391.47,480.32 L393.67,480.87 L395.76,481.7 L397.72,482.83 L399.56,484.24 L401.98,487.15 L404.98,491.56 L408.57,497.47 L412.74,504.89 L416.4,511.21 L419.55,516.43 L422.19,520.56 L424.32,523.6 L426.01,526.18 L427.26,528.31 L428.08,529.99 L428.46,531.21 L428.78,533.28 L429.06,536.21 L429.28,539.99 L429.45,544.62 L429.78,548.56 L430.26,551.8 L430.9,554.35 L431.7,556.2 L432.21,557.77 L432.44,559.07 L432.38,560.1 L432.04,560.85 L431.12,561.39 L429.61,561.73 L427.53,561.87 L424.87,561.8 L420.75,561.29 L415.19,560.33 L408.18,558.92 L399.72,557.07 L392.6,555.3 L386.8,553.61 L382.33,552.01 L379.19,550.48 L376.31,548.75 L373.71,546.81 L371.37,544.68 L369.29,542.33 L367.56,540.15 L366.18,538.12 L365.14,536.24 L364.44,534.52 L363.86,532.75 L363.38,530.93 L363.02,529.07 L362.76,527.15 L362.61,524.96 L362.54,522.5 L362.58,519.76 L362.7,516.75 L362.93,513.91 L363.25,511.25 L363.68,508.76 L364.2,506.45 L365.04,503.85 L366.19,500.96 L367.67,497.79 L369.46,494.33 L371.65,491.15 L374.23,488.23 L377.22,485.59 L380.6,483.22 L383.13,481.44 L384.82,480.26Z" fill="url(#g-bull-01)" stroke="#048941" stroke-width="0.35" stroke-linejoin="round" fill-rule="evenodd"/><path id="facet-05" d="M385.67,479.67 L384.82,480.26 L383.13,481.44 L380.6,483.22 L377.22,485.59 L374.23,488.23 L371.65,491.15 L369.46,494.33 L367.67,497.79 L366.19,500.96 L365.04,503.85 L364.2,506.45 L363.68,508.76 L363.25,511.25 L362.93,513.91 L362.7,516.75 L362.58,519.76 L362.54,522.5 L362.61,524.96 L362.76,527.15 L363.02,529.07 L363.38,530.93 L363.86,532.75 L364.44,534.52 L365.14,536.24 L366.18,538.12 L367.56,540.15 L369.29,542.33 L371.37,544.68 L373.71,546.81 L376.31,548.75 L379.19,550.48 L382.33,552.01 L386.8,553.61 L392.6,555.3 L399.72,557.07 L408.18,558.92 L415.19,560.33 L420.75,561.29 L424.87,561.8 L427.53,561.87 L429.61,561.73 L431.12,561.39 L432.04,560.85 L432.38,560.1 L432.44,559.07 L432.21,557.77 L431.7,556.2 L430.9,554.35 L430.26,551.8 L429.78,548.56 L429.45,544.62 L429.28,539.99 L429.06,536.21 L428.78,533.28 L428.46,531.21 L428.08,529.99 L427.26,528.31 L426.01,526.18 L424.32,523.6 L422.19,520.56 L419.55,516.43 L416.4,511.21 L412.74,504.89 L408.57,497.47 L404.98,491.56 L401.98,487.15 L399.56,484.24 L397.72,482.83 L395.76,481.7 L393.67,480.87 L391.47,480.32 L389.15,480.06 L387.41,479.86 L386.25,479.73Z" fill="url(#g-bull-05)" stroke="#057f3e" stroke-width="0.35" stroke-linejoin="round" fill-rule="evenodd"/><path id="facet-16" d="M304,593 L303.69,593.25 L303.06,593.75 L302.11,594.5 L300.85,595.5 L300.07,596.42 L299.76,597.27 L299.92,598.05 L300.56,598.76 L301.03,599.68 L301.32,600.82 L301.44,602.17 L301.38,603.73 L301.4,604.96 L301.51,605.86 L301.69,606.43 L301.94,606.66 L302.14,606.83 L302.27,606.94 L302.33,607Z" fill="url(#g-bull-16)" stroke="#0ecd70" stroke-width="0.35" stroke-linejoin="round" fill-rule="evenodd"/></g>
</svg>