<svg xmlns="http://www.w3.org/2000/svg" width="2521" height="3840" viewBox="304.75 840.75 21.5 32.75"><title>man-tie</title><defs><linearGradient id="grad-tie" gradientUnits="userSpaceOnUse" x1="310.21" y1="861.96" x2="320.71" y2="852.31"><stop offset="0" stop-color="#030000"/><stop offset="1" stop-color="#1cc92a"/></linearGradient></defs><path id="man-tie" fill="url(#grad-tie)" d="M307 846C307.67 844.33 310.5 842.33 312 843C313.5 843.67 314.67 847.5 316 850C317.33 852.5 318.83 855.33 320 858C321.17 860.67 322.33 863.83 323 866C323.67 868.17 324.5 870.17 324 871C323.5 871.83 321.33 871.5 320 871C318.67 870.5 317.5 869.67 316 868C314.5 866.33 312.33 863.5 311 861C309.67 858.5 308.67 855.5 308 853C307.33 850.5 306.33 847.67 307 846Z"/></svg>